# xmcd
#
# Track frame offsets:
#	150
#	23377
#	32875
#	50490
#	70563
#	74301
#	96198
#	114699
#	127173
#	145890
#	152299
#	175262
#
# Disc length: 2400 seconds
#
# Revision: 1
# Processed by: cddbd v1.4PL0 Copyright (c) Steve Scherf et al.
# Submitted via: audiograbber 1.80.04
#
DISCID=9e095e0c
DTITLE=Lotti Nation - Demo
DYEAR=1998
DGENRE=HipHop
TTITLE0=Fick die Bohne (low-fi-Mix)
TTITLE1=Jeopardy, Teil 1
TTITLE2=Bescheid
TTITLE3=1 gegen 1
TTITLE4=Strandfilm
TTITLE5=St.Tropez (Topfilm-Mix)
TTITLE6=Man gewöhnt sich an alles
TTITLE7=Die Knallmaschine
TTITLE8=Die Zeit... (Porn-Mix)
TTITLE9=Jeopardy, Teil 2
TTITLE10=Cool 98
TTITLE11=Jeopardy, Teil 3
EXTD=Demo CD\nwww.lottination.com
EXTT0=
EXTT1=
EXTT2=
EXTT3=
EXTT4=
EXTT5=
EXTT6=
EXTT7=
EXTT8=
EXTT9=
EXTT10=
EXTT11=
PLAYORDER=
